<?xml version="1.0" standalone="no"?>
<!DOCTYPE svg PUBLIC "-//W3C//DTD SVG 20010904//EN"
 "http://www.w3.org/TR/2001/REC-SVG-20010904/DTD/svg10.dtd">
<svg version="1.0" xmlns="http://www.w3.org/2000/svg"
 width="208.000000pt" height="50.000000pt" viewBox="0 0 208.000000 50.000000"
 preserveAspectRatio="xMidYMid meet">

<g transform="translate(0.000000,50.000000) scale(0.100000,-0.100000)"
fill="#000000" stroke="none">
<path d="M73 345 c0 -38 2 -53 4 -32 2 20 2 52 0 70 -2 17 -4 1 -4 -38z"/>
<path d="M173 345 c0 -38 2 -53 4 -32 2 20 2 52 0 70 -2 17 -4 1 -4 -38z"/>
<path d="M220 400 c0 -6 33 -10 80 -10 47 0 80 4 80 10 0 6 -33 10 -80 10 -47
0 -80 -4 -80 -10z"/>
<path d="M253 343 c26 -2 67 -2 90 0 23 2 2 3 -48 3 -50 0 -68 -1 -42 -3z"/>
<path d="M220 290 c0 -6 33 -10 80 -10 47 0 80 4 80 10 0 6 -33 10 -80 10 -47
0 -80 -4 -80 -10z"/>
<path d="M147 233 c46 -2 120 -2 166 0 45 1 8 3 -83 3 -91 0 -128 -2 -83 -3z"/>
<path d="M430 119 c0 -91 7 -106 43 -87 14 7 17 23 17 87 l0 79 -30 4 -30 5 0
-88z"/>
<path d="M70 180 c0 -6 28 -10 65 -10 37 0 65 4 65 10 0 6 -28 10 -65 10 -37
0 -65 -4 -65 -10z"/>
<path d="M233 125 c0 -38 2 -53 4 -32 2 20 2 52 0 70 -2 17 -4 1 -4 -38z"/>
<path d="M373 125 c0 -38 2 -53 4 -32 2 20 2 52 0 70 -2 17 -4 1 -4 -38z"/>
<path d="M612 98 c1 -50 2 -54 5 -20 2 23 8 42 13 42 5 0 19 -18 31 -40 13
-22 26 -40 31 -40 4 0 7 28 6 63 -1 49 -2 53 -5 20 -2 -24 -7 -43 -11 -43 -4
0 -18 18 -32 40 -14 22 -28 40 -32 40 -5 0 -7 -28 -6 -62z"/>
<path d="M740 100 l0 -60 30 0 c17 0 30 5 30 10 0 6 -11 10 -25 10 -16 0 -25
6 -25 15 0 8 9 15 20 15 11 0 20 5 20 10 0 6 -9 10 -20 10 -11 0 -20 7 -20 15
0 9 9 15 25 15 14 0 25 5 25 10 0 6 -13 10 -30 10 l-30 0 0 -60z"/>
<path d="M839 104 c15 -53 40 -84 41 -52 1 7 7 27 14 43 l13 30 12 -42 c6 -24
16 -43 21 -43 8 0 40 90 40 112 0 25 -19 -7 -25 -42 -8 -48 -21 -44 -30 10 -4
23 -12 40 -20 40 -8 0 -16 -17 -20 -40 -9 -55 -22 -58 -32 -8 -5 23 -13 43
-20 45 -7 3 -6 -15 6 -53z"/>
<path d="M1016 145 c-20 -21 -12 -38 25 -52 36 -14 30 -37 -7 -30 -29 5 -32
-9 -4 -18 23 -7 50 10 50 32 0 8 -13 19 -30 24 -42 15 -41 44 1 35 27 -5 30
-4 19 9 -16 19 -35 19 -54 0z"/>
<path d="M1172 98 c1 -42 3 -51 5 -25 5 46 18 47 33 2 6 -19 15 -35 20 -35 5
0 14 16 20 35 15 45 28 44 33 -2 2 -26 4 -17 5 25 1 34 -2 62 -7 62 -5 0 -17
-20 -28 -45 -10 -25 -20 -45 -23 -45 -3 0 -13 20 -23 45 -11 25 -23 45 -28 45
-5 0 -8 -28 -7 -62z"/>
<path d="M1355 148 c-26 -72 -34 -102 -29 -107 4 -3 9 0 11 7 3 6 17 12 33 12
16 0 30 -6 33 -12 2 -7 7 -10 11 -7 9 8 -28 112 -42 117 -7 2 -14 -2 -17 -10z
m25 -27 c0 -5 3 -16 6 -25 4 -12 0 -16 -16 -16 -16 0 -20 4 -16 16 3 9 6 20 6
25 0 5 5 9 10 9 6 0 10 -4 10 -9z"/>
<path d="M1460 140 c-11 -11 -20 -29 -20 -40 0 -22 33 -60 53 -60 22 0 57 31
57 51 0 14 -7 19 -25 19 -14 0 -25 -4 -25 -10 0 -5 7 -10 16 -10 26 0 10 -25
-18 -28 -30 -4 -44 23 -33 59 6 19 12 20 49 15 38 -6 40 -5 22 9 -27 20 -52
19 -76 -5z"/>
<path d="M1594 100 c-12 -33 -17 -60 -13 -60 4 0 11 5 14 10 3 6 17 10 30 10
13 0 27 -4 30 -10 3 -5 10 -10 14 -10 4 0 -1 27 -13 60 -12 33 -25 60 -31 60
-6 0 -19 -27 -31 -60z m46 -7 c0 -7 -7 -13 -15 -13 -16 0 -19 9 -9 35 5 13 8
14 15 3 5 -7 9 -19 9 -25z"/>
<path d="M1700 151 c0 -5 11 -11 25 -13 l25 -3 -25 -37 c-33 -49 -32 -58 10
-58 19 0 35 5 35 10 0 6 -11 10 -25 10 l-26 0 26 37 c34 51 32 63 -10 63 -19
0 -35 -4 -35 -9z"/>
<path d="M1800 100 c0 -33 4 -60 10 -60 6 0 10 27 10 60 0 33 -4 60 -10 60 -6
0 -10 -27 -10 -60z"/>
<path d="M1862 98 c1 -50 2 -54 5 -20 2 23 7 42 11 42 4 0 18 -18 32 -40 14
-22 28 -40 32 -40 5 0 8 27 8 60 0 68 -17 82 -22 18 l-3 -43 -25 42 c-14 24
-28 43 -32 43 -5 0 -7 -28 -6 -62z"/>
<path d="M1980 100 l0 -60 30 0 c17 0 30 5 30 10 0 6 -9 10 -20 10 -11 0 -20
7 -20 15 0 8 9 15 20 15 11 0 20 5 20 10 0 6 -9 10 -20 10 -11 0 -20 7 -20 15
0 8 9 15 20 15 11 0 20 5 20 10 0 6 -13 10 -30 10 l-30 0 0 -60z"/>
<path d="M97 123 c18 -2 50 -2 70 0 21 2 7 4 -32 4 -38 0 -55 -2 -38 -4z"/>
<path d="M70 70 c0 -6 28 -10 65 -10 37 0 65 4 65 10 0 6 -28 10 -65 10 -37 0
-65 -4 -65 -10z"/>
</g>
</svg>
